<svg xmlns="http://www.w3.org/2000/svg" width="682.667" height="682.667" preserveAspectRatio="xMidYMid meet" version="1.0" viewBox="0 0 512 512"><metadata>Created by potrace 1.14, written by Peter Selinger 2001-2017</metadata><g fill="#000" stroke="none"><path d="M760 5104 c-36 -8 -74 -16 -85 -18 -27 -5 -116 -41 -168 -67 -148 -75 -292 -211 -384 -364 -43 -73 -85 -186 -107 -291 -21 -104 -23 -1001 -2 -1042 27 -52 54 -62 168 -62 116 0 169 18 219 70 61 64 62 66 64 515 1 226 5 426 10 445 20 87 78 186 150 252 44 41 148 90 218 103 69 12 1847 13 1927 1 25 -4 87 -14 138 -22 316 -49 643 -189 907 -388 106 -80 123 -95 230 -202 267 -265 454 -598 551 -979 13 -48 44 -239 50 -302 12 -137 7 -363 -12 -493 -40 -271 -162 -601 -293 -794 -17 -26 -31 -49 -31 -52 0 -3 -5 -10 -10 -17 -6 -7 -40 -51 -76 -100 -112 -151 -324 -353 -479 -457 -123 -83 -384 -220 -418 -220 -7 0 -17 -4 -23 -9 -38 -35 -376 -117 -564 -137 -93 -10 -1813 -11 -1884 -2 -127 17 -261 109 -327 225 -61 106 -62 119 -64 568 -1 226 -5 421 -10 435 -17 54 -65 108 -117 134 -45 23 -64 26 -149 26 -111 0 -141 -10 -169 -56 -20 -31 -20 -49 -19 -495 1 -485 5 -545 46 -669 78 -237 245 -430 472 -545 68 -34 187 -73 252 -82 71 -10 1942 -10 2039 0 41 4 84 10 95 12 11 3 34 6 50 9 17 2 66 12 110 21 44 9 87 18 96 20 110 22 334 103 494 179 622 296 1104 835 1328 1486 38 109 90 311 101 390 3 25 8 55 10 68 13 64 21 207 21 372 0 213 -9 312 -41 475 -178 902 -816 1637 -1680 1935 -103 35 -283 84 -354 96 -14 2 -38 6 -55 9 -16 3 -50 8 -75 11 -25 3 -56 8 -70 12 -14 3 -473 7 -1020 8 -838 2 -1005 0 -1060 -12z" transform="translate(0.000000,512.000000) scale(0.100000,-0.100000)"/><path d="M1128 4185 c-2 -2 -16 -6 -32 -9 -59 -11 -116 -63 -147 -134 -17 -40 -19 -72 -19 -370 0 -430 -8 -414 219 -416 171 -1 216 13 237 74 4 14 9 95 9 180 2 166 6 194 33 205 21 9 1150 10 1247 1 201 -18 406 -96 573 -218 31 -23 95 -80 142 -127 441 -446 445 -1163 8 -1612 -64 -66 -184 -162 -243 -195 -11 -6 -40 -22 -65 -36 -100 -55 -262 -107 -390 -123 -58 -8 -1232 -14 -1263 -7 -33 8 -39 41 -41 219 l-1 175 -37 34 -38 34 -150 0 c-251 0 -241 17 -240 -429 l2 -329 31 -53 c21 -36 48 -63 81 -84 l49 -30 781 -2 c430 -1 808 2 841 7 33 5 82 11 109 15 27 3 53 8 56 10 4 2 20 7 36 9 79 15 255 76 336 117 242 123 407 252 562 439 68 82 146 193 146 209 0 5 4 11 9 13 26 10 135 275 172 418 49 189 59 475 25 665 -19 105 -75 303 -87 311 -5 3 -9 12 -9 20 0 25 -94 207 -151 291 -72 109 -119 165 -218 263 -249 246 -542 391 -926 456 -41 7 -1640 16 -1647 9z" transform="translate(0.000000,512.000000) scale(0.100000,-0.100000)"/><path d="M109 2790 c-93 -11 -109 -45 -109 -232 0 -124 3 -147 20 -175 10 -17 28 -37 40 -43 15 -8 363 -11 1273 -11 689 0 1265 3 1281 6 44 9 106 55 140 103 38 54 47 140 22 207 -20 51 -88 118 -138 134 -27 9 -353 12 -1260 14 -672 1 -1244 0 -1269 -3z" transform="translate(0.000000,512.000000) scale(0.100000,-0.100000)"/></g></svg>