<svg xmlns="http://www.w3.org/2000/svg" width="792" height="792" version="1" viewBox="0 0 594 594"><path d="M86.5 2C45.4 10.7 14.3 40.1 3.2 80.8L.6 90.5.3 148c-.4 54.5-.3 57.7 1.5 61 2.9 5.5 7.4 7.2 18.9 7.1 5.4 0 10.7-.2 11.9-.4 10.4-2.4 18.7-10.6 20.9-20.5.4-1.8.7-23.7.7-48.6.1-40.4.3-46 1.9-52.4 4.2-16.7 16.4-30.1 33.5-36.9l6.9-2.8H205c97.2 0 117.4.3 126 2 1.3.3 4.2.7 6.5 1 13.4 2 34.2 7.9 49.7 14.1 55.3 22.2 100.3 63.7 127.2 117.4 13.2 26.5 21.8 56.4 24.3 84.5 1 10.5.9 38 0 47.5-7.2 70.5-45.6 134.8-105.1 175.9-32.4 22.3-76.4 38.2-116.1 41.9-4.9.5-56.7.8-115 .7l-106-.1-5.9-2.3c-7.7-3-12-5.6-17.8-10.4-7.2-5.9-15.1-18.8-17.4-28.4-.4-1.5-.8-24-.9-49.8-.2-31-.7-48.4-1.4-51.2-1.6-5.7-6.7-12.1-12.6-15.8-4.6-2.8-5.5-3-17.2-3.4-14.1-.4-18 .8-21.4 6.2-1.8 3.1-1.9 5.4-1.8 58.2 0 31 .4 57.2 1 60 .5 2.7 1.2 6.3 1.5 8 .3 1.6 1.6 6.3 3 10.3 11.8 35.4 41.2 61.8 78.6 70.9 6.8 1.7 15.7 1.8 121.3 1.8 62.7 0 116.5-.4 119.5-.8s7.3-1 9.5-1.2c2.2-.3 5.1-.7 6.5-1 1.3-.2 4.2-.7 6.5-1.1 2.2-.3 6-1 8.5-1.6 2.5-.5 5.3-1.1 6.2-1.3 5.4-1.1 22.1-6 31-9.1 82.3-28.5 150.4-93.9 181-173.9 5.7-14.7 12.3-37.3 14.2-48.5.3-1.9.8-4.6 1.1-6 .3-1.4.8-4.5 1.1-7 .3-2.5.8-4.7.9-5 1-1.7 2-22.4 2-41 0-20.2-.6-32.6-2-38.1-.3-1.3-.7-4.2-.9-6.4-.3-2.2-1-6.7-1.6-10-20-105-96.4-192.6-197-225.9-22.5-7.4-37-10.8-56-13.1-2.5-.4-5.8-.9-7.5-1.2-1.6-.4-54.7-.8-118-.9C100.6.1 95.1.2 86.5 2z"/><path d="M131.1 108.2c-11.6 1.7-20.6 10.1-22.7 21.3-.4 2.2-.7 20.3-.7 40.2 0 35.9.1 36.2 2.3 39.8 3.6 5.8 7 6.7 25.5 6.8 18.2 0 20.7-.7 24.5-6.8 2.1-3.4 2.2-4.8 2.3-23.3 0-18.7.1-19.7 2.2-21.8l2.1-2.1 74 .2c40.6.1 75 .5 76.4.9 1.4.3 3.9.9 5.5 1.2 10.3 1.8 26.4 7.4 36.5 12.7 12.6 6.6 22 13.7 33 24.7 21.6 21.6 34 46 38.7 76.5.9 5.7.9 30 0 36.3-5.1 36.9-25.7 70.4-56.2 91.7-8.9 6.2-25.4 15.2-29.4 16-1.1.2-2.8.8-3.9 1.4-3 1.6-17.7 5.2-26.8 6.5-6.1.9-27.5 1.3-78.5 1.2l-70.1-.1-1.7-2.2c-1.6-1.9-1.8-4.5-1.8-21.1 0-16.9-.2-19.4-2-22.8-3.4-6.5-6.3-7.4-25.7-7.4-18.8 0-21.2.7-25 7.1-1.8 3-1.9 5.6-1.9 39.3 0 19.9.3 37.9.7 40.1 1.4 8.7 10.2 18.2 18.9 20.6 3 .8 28.5 1.1 89.7 1.1 86.1.1 91.7-.1 109-2.8 48.4-7.5 93.6-35.1 123.6-75.4 18.7-25.2 31.7-57.8 35.2-88.5.9-7.9.9-37.4 0-45-4.3-34.6-17.5-66.7-39.1-94.5-7.8-10.1-27.3-28.8-37.8-36.2-11.2-8-24.7-15.7-36.9-20.9-8.2-3.6-25.8-9.3-32-10.4-1.4-.3-3.6-.7-5-1-2.5-.5-5.8-1.1-11.5-2-1.6-.2-7.3-.8-12.5-1.1-13.4-.9-172.6-1.1-178.9-.2z"/><path d="M6.2 272.1C.6 275.8 0 278 0 296.7c0 19 .9 22.2 6.9 25.7 3.3 1.9 6.5 1.9 148 1.9 103.9 0 145.7-.3 148.7-1.2 12.5-3.4 20.9-14.8 20.3-27.3-.4-7.4-2.6-12.3-8-17.9-8.3-8.5 4-7.9-160.8-7.9H9.5l-3.3 2.1z"/></svg>