<svg height="512pt" viewBox="0 -44 512 512" width="512pt" xmlns="http://www.w3.org/2000/svg">
  <path d="M205.484 355.094h101.032v55.863H205.484zm0 0" fill="#2c6a9b"/>
  <path d="M205.488 355.094h101.024v17.386H205.488zm0 0" fill="#1a5a84"/>
  <path d="M354.215 424.727h-196.43a9.317 9.317 0 01-9.316-9.317c0-5.144 4.172-9.312 9.316-9.312h196.43a9.31 9.31 0 019.312 9.312c0 5.145-4.168 9.317-9.312 9.317zm0 0M512 15.762v331.793c0 5.808-4.707 10.508-10.52 10.508H10.52c-5.813 0-10.52-4.7-10.52-10.508V15.762C0 7.059 7.066 0 15.773 0h480.454C504.94 0 512 7.059 512 15.762zm0 0" fill="#dceeef"/>
  <path d="M512 15.762V347.55a10.505 10.505 0 01-10.512 10.512h-22.875a10.505 10.505 0 0010.512-10.512V15.76c0-8.698-7.059-15.757-15.77-15.757h22.875c8.711 0 15.77 7.059 15.77 15.758zm0 0" fill="#bcdde2"/>
  <path d="M282.32 77.813H512v134.55H282.32zm0 0" fill="#3bc3ff"/>
  <path d="M489.125 77.813H512v134.55h-22.875zm0 0" fill="#009af2"/>
  <path d="M452.063 151.16a10.3 10.3 0 011.476 9.219l-14.187 44.02-2.575 7.964H318.09l8.719-23.09c.265-.695.601-1.363 1.007-1.988l4.676-7.164c3.055-4.684 1.813-10.945-2.793-14.113l-27.336-18.805a10.343 10.343 0 00-4.625-1.742l-15.418-1.82V77.809h162.965L433.75 99.62a10.313 10.313 0 01-8.402 5.461l-49.809 3.422a10.31 10.31 0 00-5.742 2.246l-18.152 14.578a10.3 10.3 0 00-2.98 12.184l4.64 10.539a10.301 10.301 0 0011.14 6.008l73.633-12.418a10.3 10.3 0 0110.043 4.097zm0 0" fill="#8dffa2"/>
  <path d="M282.32 0v358.063H10.52c-5.813 0-10.52-4.7-10.52-10.508V15.762C0 7.059 7.066 0 15.773 0zm0 0" fill="#4c94c3"/>
  <path d="M512 15.762v22.5H0v-22.5C0 7.059 7.066 0 15.773 0h480.454C504.94 0 512 7.059 512 15.762zm0 0" fill="#8bc1c6"/>
  <path d="M512 307.648v39.903a10.505 10.505 0 01-10.512 10.512H10.512A10.505 10.505 0 010 347.55v-39.903zm0 0" fill="#3b7ca8"/>
  <path d="M512 307.648v39.903a10.505 10.505 0 01-10.512 10.512h-22.875a10.505 10.505 0 0010.512-10.512v-39.903zm0 0" fill="#2c6a9b"/>
  <path d="M49.512 92.004h-.473c-4.266 0-7.723-3.461-7.723-7.727s3.457-7.726 7.723-7.726h.473c4.27 0 7.726 3.46 7.726 7.726s-3.457 7.727-7.726 7.727zm0 0M102.504 92.004H73.656c-4.265 0-7.722-3.461-7.722-7.727s3.457-7.726 7.722-7.726h28.848c4.266 0 7.726 3.46 7.726 7.726s-3.46 7.727-7.726 7.727zm0 0" fill="#ff8980"/>
  <g fill="#8dffa2">
    <path d="M49.512 117.484h-.473a7.723 7.723 0 01-7.723-7.726 7.725 7.725 0 017.723-7.727h.473c4.27 0 7.726 3.461 7.726 7.727a7.724 7.724 0 01-7.726 7.726zm0 0M138.215 117.484H73.656a7.723 7.723 0 01-7.722-7.726 7.725 7.725 0 017.722-7.727h64.559c4.27 0 7.726 3.461 7.726 7.727a7.724 7.724 0 01-7.726 7.726zm0 0M49.512 142.969h-.473a7.725 7.725 0 01-7.723-7.727 7.723 7.723 0 017.723-7.726h.473a7.724 7.724 0 017.726 7.726 7.726 7.726 0 01-7.726 7.727zm0 0M120.36 142.969H73.655a7.725 7.725 0 01-7.722-7.727 7.723 7.723 0 017.722-7.726h46.703a7.724 7.724 0 017.727 7.726 7.726 7.726 0 01-7.727 7.727zm0 0M49.512 168.45h-.473c-4.266 0-7.723-3.462-7.723-7.727s3.457-7.727 7.723-7.727h.473c4.27 0 7.726 3.461 7.726 7.727s-3.457 7.726-7.726 7.726zm0 0M191.785 168.45h-74.86a7.726 7.726 0 110-15.454h74.86c4.27 0 7.727 3.461 7.727 7.727s-3.457 7.726-7.727 7.726zm0 0M95.637 168.45h-21.98c-4.266 0-7.723-3.462-7.723-7.727s3.457-7.727 7.722-7.727h21.98c4.266 0 7.723 3.461 7.723 7.727s-3.457 7.726-7.722 7.726zm0 0"/>
  </g>
  <path d="M49.512 193.93h-.473a7.723 7.723 0 01-7.723-7.727 7.725 7.725 0 017.723-7.726h.473c4.27 0 7.726 3.46 7.726 7.726a7.724 7.724 0 01-7.726 7.727zm0 0M138.215 193.93H73.656a7.723 7.723 0 01-7.722-7.727 7.725 7.725 0 017.722-7.726h64.559c4.27 0 7.726 3.46 7.726 7.726a7.724 7.724 0 01-7.726 7.727zm0 0M49.512 219.41h-.473a7.722 7.722 0 01-7.723-7.722 7.723 7.723 0 017.723-7.727h.473a7.724 7.724 0 017.726 7.726 7.723 7.723 0 01-7.726 7.723zm0 0M138.215 219.41H73.656a7.722 7.722 0 01-7.722-7.722 7.723 7.723 0 017.722-7.727h64.559a7.724 7.724 0 017.726 7.726 7.723 7.723 0 01-7.726 7.723zm0 0" fill="#8df4ff"/>
  <path d="M49.512 244.895h-.473c-4.266 0-7.723-3.461-7.723-7.727s3.457-7.727 7.723-7.727h.473c4.27 0 7.726 3.461 7.726 7.727s-3.457 7.727-7.726 7.727zm0 0M197.52 244.895h-24.965a7.726 7.726 0 110-15.454h24.965c4.27 0 7.726 3.461 7.726 7.727s-3.457 7.727-7.726 7.727zm0 0M149.89 244.895H73.657c-4.265 0-7.722-3.461-7.722-7.727s3.457-7.727 7.722-7.727h76.235c4.27 0 7.726 3.461 7.726 7.727s-3.457 7.727-7.726 7.727zm0 0M49.512 270.375h-.473a7.723 7.723 0 01-7.723-7.727 7.722 7.722 0 017.723-7.722h.473a7.723 7.723 0 017.726 7.722 7.724 7.724 0 01-7.726 7.727zm0 0M138.215 270.375H73.656a7.723 7.723 0 01-7.722-7.727 7.722 7.722 0 017.722-7.722h64.559a7.723 7.723 0 017.726 7.722 7.724 7.724 0 01-7.726 7.727zm0 0M162.832 270.375h-.473a7.723 7.723 0 01-7.722-7.727 7.722 7.722 0 017.722-7.722h.473a7.723 7.723 0 017.727 7.722 7.724 7.724 0 01-7.727 7.727zm0 0M127.012 92.004h-.473c-4.266 0-7.727-3.461-7.727-7.727s3.461-7.726 7.727-7.726h.473c4.27 0 7.726 3.46 7.726 7.726s-3.457 7.727-7.726 7.727zm0 0" fill="#ff8980"/>
  <path d="M141.395 142.969h-.47a7.726 7.726 0 01-7.726-7.727 7.724 7.724 0 017.727-7.726h.469a7.724 7.724 0 017.726 7.726 7.726 7.726 0 01-7.726 7.727zm0 0" fill="#8dffa2"/>
  <path d="M183.484 270.375h-.472a7.725 7.725 0 110-15.45h.472a7.723 7.723 0 017.727 7.723 7.724 7.724 0 01-7.727 7.727zm0 0M224.031 244.895h-.472a7.726 7.726 0 110-15.454h.472c4.27 0 7.727 3.461 7.727 7.727s-3.457 7.727-7.727 7.727zm0 0" fill="#ff8980"/>
  <path d="M162.598 219.781h-.473a7.723 7.723 0 01-7.727-7.722c0-4.27 3.461-7.727 7.727-7.727h.473a7.725 7.725 0 110 15.45zm0 0M162.598 193.93h-.473a7.724 7.724 0 01-7.727-7.727 7.729 7.729 0 017.727-7.726h.473a7.726 7.726 0 110 15.453zm0 0M183.484 219.781h-.472a7.723 7.723 0 01-7.727-7.722c0-4.27 3.461-7.727 7.727-7.727h.472a7.724 7.724 0 017.727 7.727 7.723 7.723 0 01-7.727 7.722zm0 0M204.371 219.781h-.473a7.725 7.725 0 110-15.449h.473a7.724 7.724 0 017.727 7.727 7.723 7.723 0 01-7.727 7.722zm0 0M225.262 219.781h-.473a7.723 7.723 0 01-7.726-7.722 7.724 7.724 0 017.726-7.727h.473a7.723 7.723 0 017.722 7.727 7.722 7.722 0 01-7.722 7.722zm0 0" fill="#8df4ff"/>
  <path d="M484.387 244.895H339.176a7.726 7.726 0 110-15.454h145.21a7.725 7.725 0 017.723 7.727 7.723 7.723 0 01-7.722 7.727zm0 0M317.363 244.895h-7.43c-4.265 0-7.722-3.461-7.722-7.727s3.457-7.727 7.723-7.727h7.43c4.269 0 7.726 3.461 7.726 7.727.004 4.266-3.457 7.727-7.727 7.727zm0 0M455.145 286.379H309.937a7.724 7.724 0 01-7.726-7.727 7.726 7.726 0 017.726-7.726h145.208a7.726 7.726 0 110 15.453zm0 0M484.387 286.379h-7.434a7.723 7.723 0 01-7.723-7.727 7.725 7.725 0 017.723-7.726h7.434a7.725 7.725 0 017.722 7.726 7.723 7.723 0 01-7.722 7.727zm0 0M484.387 265.637H309.934c-4.266 0-7.723-3.461-7.723-7.727s3.457-7.726 7.723-7.726h174.453a7.725 7.725 0 017.722 7.726 7.723 7.723 0 01-7.722 7.727zm0 0" fill="#4c94c3"/>
</svg>
