<svg xmlns="http://www.w3.org/2000/svg" xmlns:svg="http://www.w3.org/2000/svg" id="Capa_1" data-name="Capa 1" version="1.1" viewBox="0 0 1080 1080"><metadata id="metadata3991"/><defs id="defs3978"><style id="style3976">.cls-1{fill:#fff}</style></defs><title id="title3980">DE NEGATIVE0</title><path id="path3982" fill="#fff" stroke-width="1.755" d="m 1061.2373,540.2457 c -0.1053,288.55837 -237.61051,520.9916 -526.20398,520.9916 H 207.65419 A 188.89148,188.89148 0 0 1 18.762707,872.34581 V 705.88333 a 23.727704,23.727704 0 0 1 23.710154,-23.72771 h 24.166456 a 46.911356,46.911356 0 0 1 46.893803,46.92891 v 143.15598 a 94.208814,94.208814 0 0 0 94.22637,94.22636 h 327.60728 c 235.69754,0 430.27524,-189.27758 431.1001,-424.97511 C 967.29172,305.25017 776.01343,113.53313 540,113.53313 H 207.75949 a 94.226364,94.226364 0 0 0 -94.22637,94.19126 V 350.95057 A 46.911356,46.911356 0 0 1 66.639317,397.84438 H 42.472861 A 23.710154,23.710154 0 0 1 18.762707,374.15177 V 207.65419 A 188.92658,188.92658 0 0 1 207.65419,18.762712 H 540 c 287.94411,0 521.3601,233.416028 521.2373,521.482988 z" class="cls-1"/><path id="path3984" fill="#fff" stroke-width="1.755" d="m 871.69645,542.52721 c -1.3689,182.9069 -152.98402,329.16925 -335.85582,329.16925 H 255.23245 A 46.928906,46.928906 0 0 1 208.30354,824.80265 V 706.04128 a 23.885655,23.885655 0 0 1 23.8681,-23.88566 h 46.77096 a 24.113806,24.113806 0 0 1 24.13136,24.14891 v 58.58216 a 12.039353,12.039353 0 0 0 12.03935,12.03935 h 221.88562 c 130.62523,0 238.92675,-104.45806 239.92711,-235.06573 A 236.92604,236.92604 0 0 0 540,303.07396 H 315.11331 a 12.039353,12.039353 0 0 0 -12.03935,12.03935 v 58.59971 a 24.131356,24.131356 0 0 1 -24.13136,24.13136 h -46.77096 a 23.903205,23.903205 0 0 1 -23.8681,-23.85056 V 255.23245 a 46.946456,46.946456 0 0 1 46.92891,-46.92891 H 540 c 184.0652,0 333.10046,149.87766 331.69645,334.22367 z" class="cls-1"/><path id="path3986" fill="#fff" stroke-width="1.755" d="m 587.3852,542.35171 c -1.2285,25.48271 -23.2012,45.0335 -48.70146,45.0335 H 42.332461 A 23.552203,23.552203 0 0 1 18.762707,563.85055 V 516.2021 A 23.552203,23.552203 0 0 1 42.332461,492.61479 H 537.54298 c 0.80731,0 1.63216,0 2.43947,0 a 47.385208,47.385208 0 0 1 47.40275,49.73692 z" class="cls-1"/></svg>