<svg xmlns="http://www.w3.org/2000/svg" viewBox="0 0 512 512">
  <path d="M264.828 353.103c0 4.873-3.946 8.828-8.828 8.828s-8.828-3.955-8.828-8.828c0-4.873 3.946-8.828 8.828-8.828s8.828 3.956 8.828 8.828"/>
  <path d="M351.103 467.862H160.886c-1.969 0-2.737-2.719-1.095-3.858l15.943-11.237c17.187-12.12 25.309-34.348 20.303-55.526h119.94v.018c-5.014 21.177 3.116 43.405 20.312 55.526l15.925 11.22c1.643 1.156.866 3.857-1.111 3.857" fill="#bdc3c7"/>
  <path d="M481.121 397.241H30.879C13.824 397.241 0 383.417 0 366.354V39.715C0 22.652 13.824 8.828 30.879 8.828h450.242C498.176 8.828 512 22.652 512 39.715v326.638c0 17.064-13.824 30.888-30.879 30.888" fill="#ecf0f1"/>
  <path d="M512 317.793H0V39.715C0 22.652 13.824 8.828 30.879 8.828h450.242C498.176 8.828 512 22.652 512 39.715v278.078z" fill="#35495e"/>
  <path d="M353.103 503.172H158.897c-9.746 0-17.655-7.91-17.655-17.655s7.91-17.655 17.655-17.655h194.207c9.746 0 17.655 7.91 17.655 17.655s-7.91 17.655-17.656 17.655" fill="#ecf0f1"/>
  <path d="M123.586 141.241c0 4.873-3.946 8.828-8.828 8.828s-8.828-3.955-8.828-8.828 3.946-8.828 8.828-8.828 8.828 3.956 8.828 8.828" fill="#f0c419"/>
  <path d="M79.457 150.069a8.809 8.809 0 01-6.903-3.319L37.35 102.674a8.825 8.825 0 01-.009-11.008l35.204-44.2a8.832 8.832 0 0112.403-1.404c3.814 3.037 4.44 8.589 1.404 12.403L55.543 97.156l30.799 38.577c3.046 3.814 2.428 9.366-1.386 12.403a8.75 8.75 0 01-5.499 1.933" fill="#26b99a"/>
  <path d="M114.759 114.759a8.826 8.826 0 01-8.828-8.828V52.966c0-4.873 3.946-8.828 8.828-8.828s8.828 3.955 8.828 8.828v52.966a8.827 8.827 0 01-8.828 8.827" fill="#f0c419"/>
  <g fill="#fff">
    <path d="M167.724 150.069h-17.655c-4.882 0-8.828-3.955-8.828-8.828s3.946-8.828 8.828-8.828h17.655c4.882 0 8.828 3.955 8.828 8.828s-3.946 8.828-8.828 8.828M220.69 150.069h-17.655c-4.882 0-8.828-3.955-8.828-8.828s3.946-8.828 8.828-8.828h17.655c4.882 0 8.828 3.955 8.828 8.828s-3.947 8.828-8.828 8.828"/>
  </g>
</svg>
